<svg width="336" height="112" viewBox="0 0 336 112" fill="none" xmlns="http://www.w3.org/2000/svg">
<g filter="url(#filter0_d_1_1519)">
<rect width="336" height="112" rx="24" fill="#F4F3F8" shape-rendering="crispEdges"/>
<g filter="url(#filter1_d_1_1519)">
<rect x="24" y="24" width="64" height="64" rx="24" fill="#DC0155"/>
<path d="M64.0001 49.5C64.0001 45.09 60.4101 41.5 56.0001 41.5C51.5901 41.5 48.0001 45.09 48.0001 49.5C48.0001 53.91 51.5901 57.5 56.0001 57.5C60.4101 57.5 64.0001 53.91 64.0001 49.5ZM51.0001 49.5C51.0001 46.74 53.2401 44.5 56.0001 44.5C58.7601 44.5 61.0001 46.74 61.0001 49.5C61.0001 52.26 58.7601 54.5 56.0001 54.5C53.2401 54.5 51.0001 52.26 51.0001 49.5ZM58.4001 59.5H53.6001C48.3601 59.5 44.1001 63.76 44.1001 69C44.1001 69.83 44.7701 70.5 45.6001 70.5H66.4001C67.2301 70.5 67.9001 69.83 67.9001 69C67.9001 63.76 63.6401 59.5 58.4001 59.5ZM47.2701 67.5C47.9501 64.64 50.5301 62.5 53.6001 62.5H58.4001C61.4701 62.5 64.0501 64.64 64.7301 67.5H47.2701Z" fill="#F4F3F8"/>
</g>
<path d="M117.941 38.288C117.941 39.136 117.741 39.936 117.341 40.688C116.941 41.44 116.301 42.056 115.421 42.536C114.541 43 113.413 43.232 112.037 43.232H109.013V50H106.277V33.32H112.037C113.317 33.32 114.397 33.544 115.277 33.992C116.173 34.424 116.837 35.016 117.269 35.768C117.717 36.52 117.941 37.36 117.941 38.288ZM112.037 41C113.077 41 113.853 40.768 114.365 40.304C114.877 39.824 115.133 39.152 115.133 38.288C115.133 36.464 114.101 35.552 112.037 35.552H109.013V41H112.037ZM123.286 38.696C123.686 38.024 124.214 37.504 124.87 37.136C125.542 36.752 126.334 36.56 127.246 36.56V39.392H126.55C125.478 39.392 124.662 39.664 124.102 40.208C123.558 40.752 123.286 41.696 123.286 43.04V50H120.55V36.776H123.286V38.696ZM135.497 50.216C134.249 50.216 133.121 49.936 132.113 49.376C131.105 48.8 130.313 48 129.737 46.976C129.161 45.936 128.873 44.736 128.873 43.376C128.873 42.032 129.169 40.84 129.761 39.8C130.353 38.76 131.161 37.96 132.185 37.4C133.209 36.84 134.353 36.56 135.617 36.56C136.881 36.56 138.025 36.84 139.049 37.4C140.073 37.96 140.881 38.76 141.473 39.8C142.065 40.84 142.361 42.032 142.361 43.376C142.361 44.72 142.057 45.912 141.449 46.952C140.841 47.992 140.009 48.8 138.953 49.376C137.913 49.936 136.761 50.216 135.497 50.216ZM135.497 47.84C136.201 47.84 136.857 47.672 137.465 47.336C138.089 47 138.593 46.496 138.977 45.824C139.361 45.152 139.553 44.336 139.553 43.376C139.553 42.416 139.369 41.608 139.001 40.952C138.633 40.28 138.145 39.776 137.537 39.44C136.929 39.104 136.273 38.936 135.569 38.936C134.865 38.936 134.209 39.104 133.601 39.44C133.009 39.776 132.537 40.28 132.185 40.952C131.833 41.608 131.657 42.416 131.657 43.376C131.657 44.8 132.017 45.904 132.737 46.688C133.473 47.456 134.393 47.84 135.497 47.84ZM144.154 43.328C144.154 42 144.426 40.824 144.97 39.8C145.53 38.776 146.282 37.984 147.226 37.424C148.186 36.848 149.25 36.56 150.418 36.56C151.282 36.56 152.13 36.752 152.962 37.136C153.81 37.504 154.482 38 154.978 38.624V32.24H157.738V50H154.978V48.008C154.53 48.648 153.906 49.176 153.106 49.592C152.322 50.008 151.418 50.216 150.394 50.216C149.242 50.216 148.186 49.928 147.226 49.352C146.282 48.76 145.53 47.944 144.97 46.904C144.426 45.848 144.154 44.656 144.154 43.328ZM154.978 43.376C154.978 42.464 154.786 41.672 154.402 41C154.034 40.328 153.546 39.816 152.938 39.464C152.33 39.112 151.674 38.936 150.97 38.936C150.266 38.936 149.61 39.112 149.002 39.464C148.394 39.8 147.898 40.304 147.514 40.976C147.146 41.632 146.962 42.416 146.962 43.328C146.962 44.24 147.146 45.04 147.514 45.728C147.898 46.416 148.394 46.944 149.002 47.312C149.626 47.664 150.282 47.84 150.97 47.84C151.674 47.84 152.33 47.664 152.938 47.312C153.546 46.96 154.034 46.448 154.402 45.776C154.786 45.088 154.978 44.288 154.978 43.376ZM173.307 36.776V50H170.571V48.44C170.139 48.984 169.571 49.416 168.867 49.736C168.179 50.04 167.443 50.192 166.659 50.192C165.619 50.192 164.683 49.976 163.851 49.544C163.035 49.112 162.387 48.472 161.907 47.624C161.443 46.776 161.211 45.752 161.211 44.552V36.776H163.923V44.144C163.923 45.328 164.219 46.24 164.811 46.88C165.403 47.504 166.211 47.816 167.235 47.816C168.259 47.816 169.067 47.504 169.659 46.88C170.267 46.24 170.571 45.328 170.571 44.144V36.776H173.307ZM176.005 43.376C176.005 42.016 176.277 40.824 176.821 39.8C177.381 38.76 178.149 37.96 179.125 37.4C180.101 36.84 181.221 36.56 182.485 36.56C184.085 36.56 185.405 36.944 186.445 37.712C187.501 38.464 188.213 39.544 188.581 40.952H185.629C185.389 40.296 185.005 39.784 184.477 39.416C183.949 39.048 183.285 38.864 182.485 38.864C181.365 38.864 180.469 39.264 179.797 40.064C179.141 40.848 178.813 41.952 178.813 43.376C178.813 44.8 179.141 45.912 179.797 46.712C180.469 47.512 181.365 47.912 182.485 47.912C184.069 47.912 185.117 47.216 185.629 45.824H188.581C188.197 47.168 187.477 48.24 186.421 49.04C185.365 49.824 184.053 50.216 182.485 50.216C181.221 50.216 180.101 49.936 179.125 49.376C178.149 48.8 177.381 48 176.821 46.976C176.277 45.936 176.005 44.736 176.005 43.376ZM194.5 39.008V46.328C194.5 46.824 194.612 47.184 194.836 47.408C195.076 47.616 195.476 47.72 196.036 47.72H197.716V50H195.556C194.324 50 193.38 49.712 192.724 49.136C192.068 48.56 191.74 47.624 191.74 46.328V39.008H190.18V36.776H191.74V33.488H194.5V36.776H197.716V39.008H194.5ZM211.92 33.32C213.696 33.32 215.248 33.664 216.576 34.352C217.92 35.024 218.952 36 219.672 37.28C220.408 38.544 220.776 40.024 220.776 41.72C220.776 43.416 220.408 44.888 219.672 46.136C218.952 47.384 217.92 48.344 216.576 49.016C215.248 49.672 213.696 50 211.92 50H206.472V33.32H211.92ZM211.92 47.768C213.872 47.768 215.368 47.24 216.408 46.184C217.448 45.128 217.968 43.64 217.968 41.72C217.968 39.784 217.448 38.272 216.408 37.184C215.368 36.096 213.872 35.552 211.92 35.552H209.208V47.768H211.92ZM235.608 43.064C235.608 43.56 235.576 44.008 235.512 44.408H225.408C225.488 45.464 225.88 46.312 226.584 46.952C227.288 47.592 228.152 47.912 229.176 47.912C230.648 47.912 231.688 47.296 232.296 46.064H235.247C234.848 47.28 234.12 48.28 233.064 49.064C232.024 49.832 230.728 50.216 229.176 50.216C227.912 50.216 226.776 49.936 225.768 49.376C224.776 48.8 223.992 48 223.416 46.976C222.856 45.936 222.576 44.736 222.576 43.376C222.576 42.016 222.848 40.824 223.392 39.8C223.952 38.76 224.728 37.96 225.72 37.4C226.728 36.84 227.88 36.56 229.176 36.56C230.424 36.56 231.536 36.832 232.512 37.376C233.488 37.92 234.248 38.688 234.792 39.68C235.336 40.656 235.608 41.784 235.608 43.064ZM232.752 42.2C232.736 41.192 232.376 40.384 231.672 39.776C230.968 39.168 230.096 38.864 229.056 38.864C228.112 38.864 227.304 39.168 226.632 39.776C225.96 40.368 225.56 41.176 225.432 42.2H232.752ZM243.1 50.216C242.06 50.216 241.124 50.032 240.292 49.664C239.476 49.28 238.828 48.768 238.348 48.128C237.868 47.472 237.612 46.744 237.58 45.944H240.412C240.46 46.504 240.724 46.976 241.204 47.36C241.7 47.728 242.316 47.912 243.052 47.912C243.82 47.912 244.412 47.768 244.828 47.48C245.26 47.176 245.476 46.792 245.476 46.328C245.476 45.832 245.236 45.464 244.756 45.224C244.292 44.984 243.548 44.72 242.524 44.432C241.532 44.16 240.724 43.896 240.1 43.64C239.476 43.384 238.932 42.992 238.468 42.464C238.02 41.936 237.796 41.24 237.796 40.376C237.796 39.672 238.004 39.032 238.42 38.456C238.836 37.864 239.428 37.4 240.196 37.064C240.98 36.728 241.876 36.56 242.884 36.56C244.388 36.56 245.596 36.944 246.508 37.712C247.436 38.464 247.932 39.496 247.996 40.808H245.26C245.212 40.216 244.972 39.744 244.54 39.392C244.108 39.04 243.524 38.864 242.788 38.864C242.068 38.864 241.516 39 241.132 39.272C240.748 39.544 240.556 39.904 240.556 40.352C240.556 40.704 240.684 41 240.94 41.24C241.196 41.48 241.508 41.672 241.876 41.816C242.244 41.944 242.788 42.112 243.508 42.32C244.468 42.576 245.252 42.84 245.86 43.112C246.484 43.368 247.02 43.752 247.468 44.264C247.916 44.776 248.148 45.456 248.164 46.304C248.164 47.056 247.956 47.728 247.54 48.32C247.124 48.912 246.532 49.376 245.764 49.712C245.012 50.048 244.124 50.216 243.1 50.216ZM252.512 35.024C252.016 35.024 251.6 34.856 251.264 34.52C250.928 34.184 250.76 33.768 250.76 33.272C250.76 32.776 250.928 32.36 251.264 32.024C251.6 31.688 252.016 31.52 252.512 31.52C252.992 31.52 253.4 31.688 253.736 32.024C254.072 32.36 254.24 32.776 254.24 33.272C254.24 33.768 254.072 34.184 253.736 34.52C253.4 34.856 252.992 35.024 252.512 35.024ZM253.856 36.776V50H251.12V36.776H253.856ZM262.776 36.56C263.8 36.56 264.704 36.768 265.488 37.184C266.288 37.584 266.912 38.088 267.36 38.696V36.776H270.12V50.216C270.12 51.432 269.864 52.512 269.352 53.456C268.84 54.416 268.096 55.168 267.12 55.712C266.16 56.256 265.008 56.528 263.664 56.528C261.872 56.528 260.384 56.104 259.2 55.256C258.016 54.424 257.344 53.288 257.184 51.848H259.896C260.104 52.536 260.544 53.088 261.216 53.504C261.904 53.936 262.72 54.152 263.664 54.152C264.768 54.152 265.656 53.816 266.328 53.144C267.016 52.472 267.36 51.496 267.36 50.216V48.008C266.896 48.632 266.264 49.16 265.464 49.592C264.68 50.008 263.784 50.216 262.776 50.216C261.624 50.216 260.568 49.928 259.608 49.352C258.664 48.76 257.912 47.944 257.352 46.904C256.808 45.848 256.536 44.656 256.536 43.328C256.536 42 256.808 40.824 257.352 39.8C257.912 38.776 258.664 37.984 259.608 37.424C260.568 36.848 261.624 36.56 262.776 36.56ZM267.36 43.376C267.36 42.464 267.168 41.672 266.784 41C266.416 40.328 265.928 39.816 265.32 39.464C264.712 39.112 264.056 38.936 263.352 38.936C262.648 38.936 261.992 39.112 261.384 39.464C260.776 39.8 260.28 40.304 259.896 40.976C259.528 41.632 259.344 42.416 259.344 43.328C259.344 44.24 259.528 45.04 259.896 45.728C260.28 46.416 260.776 46.944 261.384 47.312C262.008 47.664 262.664 47.84 263.352 47.84C264.056 47.84 264.712 47.664 265.32 47.312C265.928 46.96 266.416 46.448 266.784 45.776C267.168 45.088 267.36 44.288 267.36 43.376ZM280.386 36.56C281.426 36.56 282.354 36.776 283.17 37.208C284.002 37.64 284.65 38.28 285.114 39.128C285.578 39.976 285.81 41 285.81 42.2V50H283.098V42.608C283.098 41.424 282.802 40.52 282.21 39.896C281.618 39.256 280.81 38.936 279.786 38.936C278.762 38.936 277.946 39.256 277.338 39.896C276.746 40.52 276.45 41.424 276.45 42.608V50H273.714V36.776H276.45V38.288C276.898 37.744 277.466 37.32 278.154 37.016C278.858 36.712 279.602 36.56 280.386 36.56ZM301.42 43.064C301.42 43.56 301.388 44.008 301.324 44.408H291.22C291.3 45.464 291.692 46.312 292.396 46.952C293.1 47.592 293.964 47.912 294.988 47.912C296.46 47.912 297.5 47.296 298.108 46.064H301.06C300.66 47.28 299.932 48.28 298.876 49.064C297.836 49.832 296.54 50.216 294.988 50.216C293.724 50.216 292.588 49.936 291.58 49.376C290.588 48.8 289.804 48 289.228 46.976C288.668 45.936 288.388 44.736 288.388 43.376C288.388 42.016 288.66 40.824 289.204 39.8C289.764 38.76 290.54 37.96 291.532 37.4C292.54 36.84 293.692 36.56 294.988 36.56C296.236 36.56 297.348 36.832 298.324 37.376C299.3 37.92 300.06 38.688 300.604 39.68C301.148 40.656 301.42 41.784 301.42 43.064ZM298.564 42.2C298.548 41.192 298.188 40.384 297.484 39.776C296.78 39.168 295.908 38.864 294.868 38.864C293.924 38.864 293.116 39.168 292.444 39.776C291.772 40.368 291.372 41.176 291.244 42.2H298.564ZM306.849 38.696C307.249 38.024 307.777 37.504 308.433 37.136C309.105 36.752 309.897 36.56 310.809 36.56V39.392H310.113C309.041 39.392 308.225 39.664 307.665 40.208C307.121 40.752 306.849 41.696 306.849 43.04V50H304.113V36.776H306.849V38.696Z" fill="#333333"/>
<path d="M113.885 68.408H107.567V72.512C107.843 72.128 108.251 71.816 108.791 71.576C109.331 71.324 109.913 71.198 110.537 71.198C111.533 71.198 112.343 71.408 112.967 71.828C113.591 72.236 114.035 72.77 114.299 73.43C114.575 74.078 114.713 74.768 114.713 75.5C114.713 76.364 114.551 77.138 114.227 77.822C113.903 78.506 113.405 79.046 112.733 79.442C112.073 79.838 111.251 80.036 110.267 80.036C109.007 80.036 107.987 79.712 107.207 79.064C106.427 78.416 105.953 77.552 105.785 76.472H107.387C107.543 77.156 107.873 77.69 108.377 78.074C108.881 78.458 109.517 78.65 110.285 78.65C111.233 78.65 111.947 78.368 112.427 77.804C112.907 77.228 113.147 76.472 113.147 75.536C113.147 74.6 112.907 73.88 112.427 73.376C111.947 72.86 111.239 72.602 110.303 72.602C109.667 72.602 109.109 72.758 108.629 73.07C108.161 73.37 107.819 73.784 107.603 74.312H106.055V66.968H113.885V68.408ZM130.742 67.454L126.656 75.266V80H125.018V75.266L120.914 67.454H122.732L125.828 73.808L128.924 67.454H130.742ZM141.47 74.69C141.47 75.002 141.452 75.332 141.416 75.68H133.532C133.592 76.652 133.922 77.414 134.522 77.966C135.134 78.506 135.872 78.776 136.736 78.776C137.444 78.776 138.032 78.614 138.5 78.29C138.98 77.954 139.316 77.51 139.508 76.958H141.272C141.008 77.906 140.48 78.68 139.688 79.28C138.896 79.868 137.912 80.162 136.736 80.162C135.8 80.162 134.96 79.952 134.216 79.532C133.484 79.112 132.908 78.518 132.488 77.75C132.068 76.97 131.858 76.07 131.858 75.05C131.858 74.03 132.062 73.136 132.47 72.368C132.878 71.6 133.448 71.012 134.18 70.604C134.924 70.184 135.776 69.974 136.736 69.974C137.672 69.974 138.5 70.178 139.22 70.586C139.94 70.994 140.492 71.558 140.876 72.278C141.272 72.986 141.47 73.79 141.47 74.69ZM139.778 74.348C139.778 73.724 139.64 73.19 139.364 72.746C139.088 72.29 138.71 71.948 138.23 71.72C137.762 71.48 137.24 71.36 136.664 71.36C135.836 71.36 135.128 71.624 134.54 72.152C133.964 72.68 133.634 73.412 133.55 74.348H139.778ZM143.02 75.032C143.02 74.024 143.224 73.142 143.632 72.386C144.04 71.618 144.598 71.024 145.306 70.604C146.026 70.184 146.824 69.974 147.7 69.974C148.564 69.974 149.314 70.16 149.95 70.532C150.586 70.904 151.06 71.372 151.372 71.936V70.136H153.028V80H151.372V78.164C151.048 78.74 150.562 79.22 149.914 79.604C149.278 79.976 148.534 80.162 147.682 80.162C146.806 80.162 146.014 79.946 145.306 79.514C144.598 79.082 144.04 78.476 143.632 77.696C143.224 76.916 143.02 76.028 143.02 75.032ZM151.372 75.05C151.372 74.306 151.222 73.658 150.922 73.106C150.622 72.554 150.214 72.134 149.698 71.846C149.194 71.546 148.636 71.396 148.024 71.396C147.412 71.396 146.854 71.54 146.35 71.828C145.846 72.116 145.444 72.536 145.144 73.088C144.844 73.64 144.694 74.288 144.694 75.032C144.694 75.788 144.844 76.448 145.144 77.012C145.444 77.564 145.846 77.99 146.35 78.29C146.854 78.578 147.412 78.722 148.024 78.722C148.636 78.722 149.194 78.578 149.698 78.29C150.214 77.99 150.622 77.564 150.922 77.012C151.222 76.448 151.372 75.794 151.372 75.05ZM157.434 71.738C157.722 71.174 158.13 70.736 158.658 70.424C159.198 70.112 159.852 69.956 160.62 69.956V71.648H160.188C158.352 71.648 157.434 72.644 157.434 74.636V80H155.796V70.136H157.434V71.738ZM166.003 80.162C165.247 80.162 164.569 80.036 163.969 79.784C163.369 79.52 162.895 79.16 162.547 78.704C162.199 78.236 162.007 77.702 161.971 77.102H163.663C163.711 77.594 163.939 77.996 164.347 78.308C164.767 78.62 165.313 78.776 165.985 78.776C166.609 78.776 167.101 78.638 167.461 78.362C167.821 78.086 168.001 77.738 168.001 77.318C168.001 76.886 167.809 76.568 167.425 76.364C167.041 76.148 166.447 75.938 165.643 75.734C164.911 75.542 164.311 75.35 163.843 75.158C163.387 74.954 162.991 74.66 162.655 74.276C162.331 73.88 162.169 73.364 162.169 72.728C162.169 72.224 162.319 71.762 162.619 71.342C162.919 70.922 163.345 70.592 163.897 70.352C164.449 70.1 165.079 69.974 165.787 69.974C166.879 69.974 167.761 70.25 168.433 70.802C169.105 71.354 169.465 72.11 169.513 73.07H167.875C167.839 72.554 167.629 72.14 167.245 71.828C166.873 71.516 166.369 71.36 165.733 71.36C165.145 71.36 164.677 71.486 164.329 71.738C163.981 71.99 163.807 72.32 163.807 72.728C163.807 73.052 163.909 73.322 164.113 73.538C164.329 73.742 164.593 73.91 164.905 74.042C165.229 74.162 165.673 74.3 166.237 74.456C166.945 74.648 167.521 74.84 167.965 75.032C168.409 75.212 168.787 75.488 169.099 75.86C169.423 76.232 169.591 76.718 169.603 77.318C169.603 77.858 169.453 78.344 169.153 78.776C168.853 79.208 168.427 79.55 167.875 79.802C167.335 80.042 166.711 80.162 166.003 80.162Z" fill="#909090"/>
</g>
<defs>
<filter id="filter0_d_1_1519" x="-50" y="-26" width="436" height="212" filterUnits="userSpaceOnUse" color-interpolation-filters="sRGB">
<feFlood flood-opacity="0" result="BackgroundImageFix"/>
<feColorMatrix in="SourceAlpha" type="matrix" values="0 0 0 0 0 0 0 0 0 0 0 0 0 0 0 0 0 0 127 0" result="hardAlpha"/>
<feOffset dy="24"/>
<feGaussianBlur stdDeviation="25"/>
<feComposite in2="hardAlpha" operator="out"/>
<feColorMatrix type="matrix" values="0 0 0 0 0 0 0 0 0 0 0 0 0 0 0 0 0 0 0.15 0"/>
<feBlend mode="normal" in2="BackgroundImageFix" result="effect1_dropShadow_1_1519"/>
<feBlend mode="normal" in="SourceGraphic" in2="effect1_dropShadow_1_1519" result="shape"/>
</filter>
<filter id="filter1_d_1_1519" x="-26" y="-2" width="164" height="164" filterUnits="userSpaceOnUse" color-interpolation-filters="sRGB">
<feFlood flood-opacity="0" result="BackgroundImageFix"/>
<feColorMatrix in="SourceAlpha" type="matrix" values="0 0 0 0 0 0 0 0 0 0 0 0 0 0 0 0 0 0 127 0" result="hardAlpha"/>
<feOffset dy="24"/>
<feGaussianBlur stdDeviation="25"/>
<feComposite in2="hardAlpha" operator="out"/>
<feColorMatrix type="matrix" values="0 0 0 0 0.0509804 0 0 0 0 0.0470588 0 0 0 0 0.219608 0 0 0 0.15 0"/>
<feBlend mode="normal" in2="BackgroundImageFix" result="effect1_dropShadow_1_1519"/>
<feBlend mode="normal" in="SourceGraphic" in2="effect1_dropShadow_1_1519" result="shape"/>
</filter>
</defs>
</svg>
