<svg width="200" height="112" viewBox="0 0 200 112" fill="none" xmlns="http://www.w3.org/2000/svg">
<g filter="url(#filter0_d_1_1527)">
<rect width="200" height="112" rx="24" fill="#F4F3F8" shape-rendering="crispEdges"/>
<g filter="url(#filter1_d_1_1527)">
<rect x="24" y="24" width="64" height="64" rx="24" fill="#DC0155"/>
<path d="M42.6668 54.6667H50.6668C51.0204 54.6667 51.3596 54.5262 51.6096 54.2761C51.8597 54.0261 52.0001 53.687 52.0001 53.3333V45.3333C52.0001 44.9797 51.8597 44.6406 51.6096 44.3905C51.3596 44.1405 51.0204 44 50.6668 44H42.6668C42.3132 44 41.974 44.1405 41.724 44.3905C41.4739 44.6406 41.3335 44.9797 41.3335 45.3333V53.3333C41.3335 53.687 41.4739 54.0261 41.724 54.2761C41.974 54.5262 42.3132 54.6667 42.6668 54.6667ZM44.0001 46.6667H49.3335V52H44.0001V46.6667ZM69.3335 48H56.0001C55.6465 48 55.3074 48.1405 55.0573 48.3905C54.8073 48.6406 54.6668 48.9797 54.6668 49.3333C54.6668 49.687 54.8073 50.0261 55.0573 50.2761C55.3074 50.5262 55.6465 50.6667 56.0001 50.6667H69.3335C69.6871 50.6667 70.0262 50.5262 70.2763 50.2761C70.5263 50.0261 70.6668 49.687 70.6668 49.3333C70.6668 48.9797 70.5263 48.6406 70.2763 48.3905C70.0262 48.1405 69.6871 48 69.3335 48ZM69.3335 61.3333H56.0001C55.6465 61.3333 55.3074 61.4738 55.0573 61.7239C54.8073 61.9739 54.6668 62.313 54.6668 62.6667C54.6668 63.0203 54.8073 63.3594 55.0573 63.6095C55.3074 63.8595 55.6465 64 56.0001 64H69.3335C69.6871 64 70.0262 63.8595 70.2763 63.6095C70.5263 63.3594 70.6668 63.0203 70.6668 62.6667C70.6668 62.313 70.5263 61.9739 70.2763 61.7239C70.0262 61.4738 69.6871 61.3333 69.3335 61.3333ZM45.2561 66.6667H45.2721C45.6217 66.6655 45.9569 66.5272 46.2055 66.2813L51.6001 60.948C51.7385 60.8289 51.851 60.6826 51.9306 60.5182C52.0101 60.3538 52.055 60.1749 52.0626 59.9924C52.0701 59.81 52.0401 59.6279 51.9744 59.4575C51.9087 59.2872 51.8086 59.1321 51.6805 59.002C51.5524 58.8718 51.3989 58.7694 51.2296 58.701C51.0603 58.6327 50.8787 58.5998 50.6961 58.6045C50.5136 58.6092 50.3339 58.6513 50.1683 58.7283C50.0027 58.8053 49.8547 58.9155 49.7335 59.052L45.2948 63.4373L43.6255 61.704C43.5037 61.5781 43.3583 61.4774 43.1976 61.4077C43.0369 61.338 42.8641 61.3006 42.689 61.2977C42.3353 61.2919 41.9937 61.4267 41.7395 61.6727C41.4852 61.9186 41.3391 62.2555 41.3332 62.6092C41.3273 62.9629 41.4622 63.3044 41.7081 63.5587L44.3135 66.2667C44.4365 66.3922 44.5831 66.4921 44.7449 66.5608C44.9066 66.6294 45.0804 66.6654 45.2561 66.6667Z" fill="#F4F3F8"/>
</g>
<path d="M106.952 47.78C108.488 46.452 109.696 45.364 110.576 44.516C111.472 43.652 112.216 42.756 112.808 41.828C113.4 40.9 113.696 39.972 113.696 39.044C113.696 38.084 113.464 37.332 113 36.788C112.552 36.244 111.84 35.972 110.864 35.972C109.92 35.972 109.184 36.276 108.656 36.884C108.144 37.476 107.872 38.276 107.84 39.284H105.2C105.248 37.46 105.792 36.068 106.832 35.108C107.888 34.132 109.224 33.644 110.84 33.644C112.584 33.644 113.944 34.124 114.92 35.084C115.912 36.044 116.408 37.324 116.408 38.924C116.408 40.076 116.112 41.188 115.52 42.26C114.944 43.316 114.248 44.268 113.432 45.116C112.632 45.948 111.608 46.916 110.36 48.02L109.28 48.98H116.888V51.26H105.224V49.268L106.952 47.78ZM128.844 51.5L122.388 44.036V51.5H119.652V34.82H122.388V42.428L128.868 34.82H132.3L125.052 43.172L132.42 51.5H128.844ZM147.727 43.988H142.879V48.956H140.335V43.988H135.487V41.684H140.335V36.716H142.879V41.684H147.727V43.988Z" fill="#333333"/>
<path d="M113.774 69.626C113.774 70.67 113.414 71.54 112.694 72.236C111.986 72.92 110.9 73.262 109.436 73.262H107.024V78.5H105.386V65.954H109.436C110.852 65.954 111.926 66.296 112.658 66.98C113.402 67.664 113.774 68.546 113.774 69.626ZM109.436 71.912C110.348 71.912 111.02 71.714 111.452 71.318C111.884 70.922 112.1 70.358 112.1 69.626C112.1 68.078 111.212 67.304 109.436 67.304H107.024V71.912H109.436ZM117.448 70.238C117.736 69.674 118.144 69.236 118.672 68.924C119.212 68.612 119.866 68.456 120.634 68.456V70.148H120.202C118.366 70.148 117.448 71.144 117.448 73.136V78.5H115.81V68.636H117.448V70.238ZM126.827 78.662C125.903 78.662 125.063 78.452 124.307 78.032C123.563 77.612 122.975 77.018 122.543 76.25C122.123 75.47 121.913 74.57 121.913 73.55C121.913 72.542 122.129 71.654 122.561 70.886C123.005 70.106 123.605 69.512 124.361 69.104C125.117 68.684 125.963 68.474 126.899 68.474C127.835 68.474 128.681 68.684 129.437 69.104C130.193 69.512 130.787 70.1 131.219 70.868C131.663 71.636 131.885 72.53 131.885 73.55C131.885 74.57 131.657 75.47 131.201 76.25C130.757 77.018 130.151 77.612 129.383 78.032C128.615 78.452 127.763 78.662 126.827 78.662ZM126.827 77.222C127.415 77.222 127.967 77.084 128.483 76.808C128.999 76.532 129.413 76.118 129.725 75.566C130.049 75.014 130.211 74.342 130.211 73.55C130.211 72.758 130.055 72.086 129.743 71.534C129.431 70.982 129.023 70.574 128.519 70.31C128.015 70.034 127.469 69.896 126.881 69.896C126.281 69.896 125.729 70.034 125.225 70.31C124.733 70.574 124.337 70.982 124.037 71.534C123.737 72.086 123.587 72.758 123.587 73.55C123.587 74.354 123.731 75.032 124.019 75.584C124.319 76.136 124.715 76.55 125.207 76.826C125.699 77.09 126.239 77.222 126.827 77.222ZM134.92 67.034C134.608 67.034 134.344 66.926 134.128 66.71C133.924 66.494 133.822 66.23 133.822 65.918C133.822 65.606 133.924 65.342 134.128 65.126C134.344 64.91 134.608 64.802 134.92 64.802C135.232 64.802 135.49 64.91 135.694 65.126C135.91 65.342 136.018 65.606 136.018 65.918C136.018 66.23 135.91 66.494 135.694 66.71C135.49 66.926 135.232 67.034 134.92 67.034ZM135.73 80.642C135.73 81.518 135.508 82.16 135.064 82.568C134.62 82.976 133.972 83.18 133.12 83.18H132.166V81.794H132.85C133.306 81.794 133.624 81.704 133.804 81.524C133.996 81.344 134.092 81.038 134.092 80.606V68.636H135.73V80.642ZM147.503 73.19C147.503 73.502 147.485 73.832 147.449 74.18H139.565C139.625 75.152 139.955 75.914 140.555 76.466C141.167 77.006 141.905 77.276 142.769 77.276C143.477 77.276 144.065 77.114 144.533 76.79C145.013 76.454 145.349 76.01 145.541 75.458H147.305C147.041 76.406 146.513 77.18 145.721 77.78C144.929 78.368 143.945 78.662 142.769 78.662C141.833 78.662 140.993 78.452 140.249 78.032C139.517 77.612 138.941 77.018 138.521 76.25C138.101 75.47 137.891 74.57 137.891 73.55C137.891 72.53 138.095 71.636 138.503 70.868C138.911 70.1 139.481 69.512 140.213 69.104C140.957 68.684 141.809 68.474 142.769 68.474C143.705 68.474 144.533 68.678 145.253 69.086C145.973 69.494 146.525 70.058 146.909 70.778C147.305 71.486 147.503 72.29 147.503 73.19ZM145.811 72.848C145.811 72.224 145.673 71.69 145.397 71.246C145.121 70.79 144.743 70.448 144.263 70.22C143.795 69.98 143.273 69.86 142.697 69.86C141.869 69.86 141.161 70.124 140.573 70.652C139.997 71.18 139.667 71.912 139.583 72.848H145.811ZM149.053 73.55C149.053 72.53 149.257 71.642 149.665 70.886C150.073 70.118 150.637 69.524 151.357 69.104C152.089 68.684 152.923 68.474 153.859 68.474C155.071 68.474 156.067 68.768 156.847 69.356C157.639 69.944 158.161 70.76 158.413 71.804H156.649C156.481 71.204 156.151 70.73 155.659 70.382C155.179 70.034 154.579 69.86 153.859 69.86C152.923 69.86 152.167 70.184 151.591 70.832C151.015 71.468 150.727 72.374 150.727 73.55C150.727 74.738 151.015 75.656 151.591 76.304C152.167 76.952 152.923 77.276 153.859 77.276C154.579 77.276 155.179 77.108 155.659 76.772C156.139 76.436 156.469 75.956 156.649 75.332H158.413C158.149 76.34 157.621 77.15 156.829 77.762C156.037 78.362 155.047 78.662 153.859 78.662C152.923 78.662 152.089 78.452 151.357 78.032C150.637 77.612 150.073 77.018 149.665 76.25C149.257 75.482 149.053 74.582 149.053 73.55ZM162.597 69.986V75.8C162.597 76.28 162.699 76.622 162.903 76.826C163.107 77.018 163.461 77.114 163.965 77.114H165.171V78.5H163.695C162.783 78.5 162.099 78.29 161.643 77.87C161.187 77.45 160.959 76.76 160.959 75.8V69.986H159.681V68.636H160.959V66.152H162.597V68.636H165.171V69.986H162.597ZM170.648 78.662C169.892 78.662 169.214 78.536 168.614 78.284C168.014 78.02 167.54 77.66 167.192 77.204C166.844 76.736 166.652 76.202 166.616 75.602H168.308C168.356 76.094 168.584 76.496 168.992 76.808C169.412 77.12 169.958 77.276 170.63 77.276C171.254 77.276 171.746 77.138 172.106 76.862C172.466 76.586 172.646 76.238 172.646 75.818C172.646 75.386 172.454 75.068 172.07 74.864C171.686 74.648 171.092 74.438 170.288 74.234C169.556 74.042 168.956 73.85 168.488 73.658C168.032 73.454 167.636 73.16 167.3 72.776C166.976 72.38 166.814 71.864 166.814 71.228C166.814 70.724 166.964 70.262 167.264 69.842C167.564 69.422 167.99 69.092 168.542 68.852C169.094 68.6 169.724 68.474 170.432 68.474C171.524 68.474 172.406 68.75 173.078 69.302C173.75 69.854 174.11 70.61 174.158 71.57H172.52C172.484 71.054 172.274 70.64 171.89 70.328C171.518 70.016 171.014 69.86 170.378 69.86C169.79 69.86 169.322 69.986 168.974 70.238C168.626 70.49 168.452 70.82 168.452 71.228C168.452 71.552 168.554 71.822 168.758 72.038C168.974 72.242 169.238 72.41 169.55 72.542C169.874 72.662 170.318 72.8 170.882 72.956C171.59 73.148 172.166 73.34 172.61 73.532C173.054 73.712 173.432 73.988 173.744 74.36C174.068 74.732 174.236 75.218 174.248 75.818C174.248 76.358 174.098 76.844 173.798 77.276C173.498 77.708 173.072 78.05 172.52 78.302C171.98 78.542 171.356 78.662 170.648 78.662Z" fill="#909090"/>
</g>
<defs>
<filter id="filter0_d_1_1527" x="-50" y="-26" width="300" height="212" filterUnits="userSpaceOnUse" color-interpolation-filters="sRGB">
<feFlood flood-opacity="0" result="BackgroundImageFix"/>
<feColorMatrix in="SourceAlpha" type="matrix" values="0 0 0 0 0 0 0 0 0 0 0 0 0 0 0 0 0 0 127 0" result="hardAlpha"/>
<feOffset dy="24"/>
<feGaussianBlur stdDeviation="25"/>
<feComposite in2="hardAlpha" operator="out"/>
<feColorMatrix type="matrix" values="0 0 0 0 0 0 0 0 0 0 0 0 0 0 0 0 0 0 0.15 0"/>
<feBlend mode="normal" in2="BackgroundImageFix" result="effect1_dropShadow_1_1527"/>
<feBlend mode="normal" in="SourceGraphic" in2="effect1_dropShadow_1_1527" result="shape"/>
</filter>
<filter id="filter1_d_1_1527" x="-26" y="-2" width="164" height="164" filterUnits="userSpaceOnUse" color-interpolation-filters="sRGB">
<feFlood flood-opacity="0" result="BackgroundImageFix"/>
<feColorMatrix in="SourceAlpha" type="matrix" values="0 0 0 0 0 0 0 0 0 0 0 0 0 0 0 0 0 0 127 0" result="hardAlpha"/>
<feOffset dy="24"/>
<feGaussianBlur stdDeviation="25"/>
<feComposite in2="hardAlpha" operator="out"/>
<feColorMatrix type="matrix" values="0 0 0 0 0.0509804 0 0 0 0 0.0470588 0 0 0 0 0.219608 0 0 0 0.15 0"/>
<feBlend mode="normal" in2="BackgroundImageFix" result="effect1_dropShadow_1_1527"/>
<feBlend mode="normal" in="SourceGraphic" in2="effect1_dropShadow_1_1527" result="shape"/>
</filter>
</defs>
</svg>
