<svg width="202" height="109" viewBox="0 0 202 109" fill="none" xmlns="http://www.w3.org/2000/svg">
<g filter="url(#filter0_d_1_1533)">
<rect width="202" height="109" rx="24" fill="#F4F3F8" shape-rendering="crispEdges"/>
<path d="M39.5 39L42.98 49.7102H54.2414L45.1307 56.3295L48.6107 67.0398L39.5 60.4205L30.3893 67.0398L33.8693 56.3295L24.7586 49.7102H36.02L39.5 39Z" fill="#F2C94C"/>
<path d="M72.104 46.352V44.288L80.168 32.72H83.48V43.976H85.712V46.352H83.48V50H80.792V46.352H72.104ZM80.912 35.504L75.248 43.976H80.912V35.504ZM89.4431 50.168C88.9471 50.168 88.5311 50 88.1951 49.664C87.8591 49.328 87.6911 48.912 87.6911 48.416C87.6911 47.92 87.8591 47.504 88.1951 47.168C88.5311 46.832 88.9471 46.664 89.4431 46.664C89.9231 46.664 90.3311 46.832 90.6671 47.168C91.0031 47.504 91.1711 47.92 91.1711 48.416C91.1711 48.912 91.0031 49.328 90.6671 49.664C90.3311 50 89.9231 50.168 89.4431 50.168ZM96.7201 40.856C95.0561 40.024 94.2241 38.712 94.2241 36.92C94.2241 36.056 94.4401 35.264 94.8721 34.544C95.3041 33.824 95.9521 33.256 96.8161 32.84C97.6801 32.408 98.7361 32.192 99.9841 32.192C101.216 32.192 102.264 32.408 103.128 32.84C104.008 33.256 104.664 33.824 105.096 34.544C105.528 35.264 105.744 36.056 105.744 36.92C105.744 37.816 105.512 38.608 105.048 39.296C104.6 39.968 104 40.488 103.248 40.856C104.16 41.192 104.88 41.744 105.408 42.512C105.936 43.264 106.2 44.152 106.2 45.176C106.2 46.216 105.936 47.136 105.408 47.936C104.88 48.736 104.144 49.352 103.2 49.784C102.256 50.216 101.184 50.432 99.9841 50.432C98.7841 50.432 97.7121 50.216 96.7681 49.784C95.8401 49.352 95.1121 48.736 94.5841 47.936C94.0561 47.136 93.7921 46.216 93.7921 45.176C93.7921 44.136 94.0561 43.24 94.5841 42.488C95.1121 41.736 95.8241 41.192 96.7201 40.856ZM103.128 37.256C103.128 36.36 102.848 35.672 102.288 35.192C101.728 34.712 100.96 34.472 99.9841 34.472C99.0241 34.472 98.2641 34.712 97.7041 35.192C97.1441 35.672 96.8641 36.368 96.8641 37.28C96.8641 38.08 97.1521 38.736 97.7281 39.248C98.3201 39.744 99.0721 39.992 99.9841 39.992C100.896 39.992 101.648 39.736 102.24 39.224C102.832 38.712 103.128 38.056 103.128 37.256ZM99.9841 42.056C98.9281 42.056 98.0641 42.32 97.3921 42.848C96.7361 43.36 96.4081 44.104 96.4081 45.08C96.4081 45.992 96.7281 46.736 97.3681 47.312C98.0081 47.872 98.8801 48.152 99.9841 48.152C101.072 48.152 101.928 47.864 102.552 47.288C103.192 46.712 103.512 45.976 103.512 45.08C103.512 44.12 103.184 43.376 102.528 42.848C101.888 42.32 101.04 42.056 99.9841 42.056Z" fill="#333333"/>
<path d="M76.364 77.126C75.536 77.126 74.792 76.982 74.132 76.694C73.484 76.394 72.974 75.986 72.602 75.47C72.23 74.942 72.038 74.336 72.026 73.652H73.772C73.832 74.24 74.072 74.738 74.492 75.146C74.924 75.542 75.548 75.74 76.364 75.74C77.144 75.74 77.756 75.548 78.2 75.164C78.656 74.768 78.884 74.264 78.884 73.652C78.884 73.172 78.752 72.782 78.488 72.482C78.224 72.182 77.894 71.954 77.498 71.798C77.102 71.642 76.568 71.474 75.896 71.294C75.068 71.078 74.402 70.862 73.898 70.646C73.406 70.43 72.98 70.094 72.62 69.638C72.272 69.17 72.098 68.546 72.098 67.766C72.098 67.082 72.272 66.476 72.62 65.948C72.968 65.42 73.454 65.012 74.078 64.724C74.714 64.436 75.44 64.292 76.256 64.292C77.432 64.292 78.392 64.586 79.136 65.174C79.892 65.762 80.318 66.542 80.414 67.514H78.614C78.554 67.034 78.302 66.614 77.858 66.254C77.414 65.882 76.826 65.696 76.094 65.696C75.41 65.696 74.852 65.876 74.42 66.236C73.988 66.584 73.772 67.076 73.772 67.712C73.772 68.168 73.898 68.54 74.15 68.828C74.414 69.116 74.732 69.338 75.104 69.494C75.488 69.638 76.022 69.806 76.706 69.998C77.534 70.226 78.2 70.454 78.704 70.682C79.208 70.898 79.64 71.24 80 71.708C80.36 72.164 80.54 72.788 80.54 73.58C80.54 74.192 80.378 74.768 80.054 75.308C79.73 75.848 79.25 76.286 78.614 76.622C77.978 76.958 77.228 77.126 76.364 77.126ZM82.3385 72.032C82.3385 71.024 82.5425 70.142 82.9505 69.386C83.3585 68.618 83.9165 68.024 84.6245 67.604C85.3445 67.184 86.1425 66.974 87.0185 66.974C87.8825 66.974 88.6325 67.16 89.2685 67.532C89.9045 67.904 90.3785 68.372 90.6905 68.936V67.136H92.3465V77H90.6905V75.164C90.3665 75.74 89.8805 76.22 89.2325 76.604C88.5965 76.976 87.8525 77.162 87.0005 77.162C86.1245 77.162 85.3325 76.946 84.6245 76.514C83.9165 76.082 83.3585 75.476 82.9505 74.696C82.5425 73.916 82.3385 73.028 82.3385 72.032ZM90.6905 72.05C90.6905 71.306 90.5405 70.658 90.2405 70.106C89.9405 69.554 89.5325 69.134 89.0165 68.846C88.5125 68.546 87.9545 68.396 87.3425 68.396C86.7305 68.396 86.1725 68.54 85.6685 68.828C85.1645 69.116 84.7625 69.536 84.4625 70.088C84.1625 70.64 84.0125 71.288 84.0125 72.032C84.0125 72.788 84.1625 73.448 84.4625 74.012C84.7625 74.564 85.1645 74.99 85.6685 75.29C86.1725 75.578 86.7305 75.722 87.3425 75.722C87.9545 75.722 88.5125 75.578 89.0165 75.29C89.5325 74.99 89.9405 74.564 90.2405 74.012C90.5405 73.448 90.6905 72.794 90.6905 72.05ZM97.1125 68.486V74.3C97.1125 74.78 97.2145 75.122 97.4185 75.326C97.6225 75.518 97.9765 75.614 98.4805 75.614H99.6865V77H98.2105C97.2985 77 96.6145 76.79 96.1585 76.37C95.7025 75.95 95.4745 75.26 95.4745 74.3V68.486H94.1965V67.136H95.4745V64.652H97.1125V67.136H99.6865V68.486H97.1125ZM102.517 65.534C102.205 65.534 101.941 65.426 101.725 65.21C101.509 64.994 101.401 64.73 101.401 64.418C101.401 64.106 101.509 63.842 101.725 63.626C101.941 63.41 102.205 63.302 102.517 63.302C102.817 63.302 103.069 63.41 103.273 63.626C103.489 63.842 103.597 64.106 103.597 64.418C103.597 64.73 103.489 64.994 103.273 65.21C103.069 65.426 102.817 65.534 102.517 65.534ZM103.309 67.136V77H101.671V67.136H103.309ZM109.593 77.162C108.837 77.162 108.159 77.036 107.559 76.784C106.959 76.52 106.485 76.16 106.137 75.704C105.789 75.236 105.597 74.702 105.561 74.102H107.253C107.301 74.594 107.529 74.996 107.937 75.308C108.357 75.62 108.903 75.776 109.575 75.776C110.199 75.776 110.691 75.638 111.051 75.362C111.411 75.086 111.591 74.738 111.591 74.318C111.591 73.886 111.399 73.568 111.015 73.364C110.631 73.148 110.037 72.938 109.233 72.734C108.501 72.542 107.901 72.35 107.433 72.158C106.977 71.954 106.581 71.66 106.245 71.276C105.921 70.88 105.759 70.364 105.759 69.728C105.759 69.224 105.909 68.762 106.209 68.342C106.509 67.922 106.935 67.592 107.487 67.352C108.039 67.1 108.669 66.974 109.377 66.974C110.469 66.974 111.351 67.25 112.023 67.802C112.695 68.354 113.055 69.11 113.103 70.07H111.465C111.429 69.554 111.219 69.14 110.835 68.828C110.463 68.516 109.959 68.36 109.323 68.36C108.735 68.36 108.267 68.486 107.919 68.738C107.571 68.99 107.397 69.32 107.397 69.728C107.397 70.052 107.499 70.322 107.703 70.538C107.919 70.742 108.183 70.91 108.495 71.042C108.819 71.162 109.263 71.3 109.827 71.456C110.535 71.648 111.111 71.84 111.555 72.032C111.999 72.212 112.377 72.488 112.689 72.86C113.013 73.232 113.181 73.718 113.193 74.318C113.193 74.858 113.043 75.344 112.743 75.776C112.443 76.208 112.017 76.55 111.465 76.802C110.925 77.042 110.301 77.162 109.593 77.162ZM119.519 68.486H117.449V77H115.811V68.486H114.533V67.136H115.811V66.434C115.811 65.33 116.093 64.526 116.657 64.022C117.233 63.506 118.151 63.248 119.411 63.248V64.616C118.691 64.616 118.181 64.76 117.881 65.048C117.593 65.324 117.449 65.786 117.449 66.434V67.136H119.519V68.486ZM120.817 72.032C120.817 71.024 121.021 70.142 121.429 69.386C121.837 68.618 122.395 68.024 123.103 67.604C123.823 67.184 124.621 66.974 125.497 66.974C126.361 66.974 127.111 67.16 127.747 67.532C128.383 67.904 128.857 68.372 129.169 68.936V67.136H130.825V77H129.169V75.164C128.845 75.74 128.359 76.22 127.711 76.604C127.075 76.976 126.331 77.162 125.479 77.162C124.603 77.162 123.811 76.946 123.103 76.514C122.395 76.082 121.837 75.476 121.429 74.696C121.021 73.916 120.817 73.028 120.817 72.032ZM129.169 72.05C129.169 71.306 129.019 70.658 128.719 70.106C128.419 69.554 128.011 69.134 127.495 68.846C126.991 68.546 126.433 68.396 125.821 68.396C125.209 68.396 124.651 68.54 124.147 68.828C123.643 69.116 123.241 69.536 122.941 70.088C122.641 70.64 122.491 71.288 122.491 72.032C122.491 72.788 122.641 73.448 122.941 74.012C123.241 74.564 123.643 74.99 124.147 75.29C124.651 75.578 125.209 75.722 125.821 75.722C126.433 75.722 126.991 75.578 127.495 75.29C128.011 74.99 128.419 74.564 128.719 74.012C129.019 73.448 129.169 72.794 129.169 72.05ZM132.981 72.05C132.981 71.03 133.185 70.142 133.593 69.386C134.001 68.618 134.565 68.024 135.285 67.604C136.017 67.184 136.851 66.974 137.787 66.974C138.999 66.974 139.995 67.268 140.775 67.856C141.567 68.444 142.089 69.26 142.341 70.304H140.577C140.409 69.704 140.079 69.23 139.587 68.882C139.107 68.534 138.507 68.36 137.787 68.36C136.851 68.36 136.095 68.684 135.519 69.332C134.943 69.968 134.655 70.874 134.655 72.05C134.655 73.238 134.943 74.156 135.519 74.804C136.095 75.452 136.851 75.776 137.787 75.776C138.507 75.776 139.107 75.608 139.587 75.272C140.067 74.936 140.397 74.456 140.577 73.832H142.341C142.077 74.84 141.549 75.65 140.757 76.262C139.965 76.862 138.975 77.162 137.787 77.162C136.851 77.162 136.017 76.952 135.285 76.532C134.565 76.112 134.001 75.518 133.593 74.75C133.185 73.982 132.981 73.082 132.981 72.05ZM146.525 68.486V74.3C146.525 74.78 146.627 75.122 146.831 75.326C147.035 75.518 147.389 75.614 147.893 75.614H149.099V77H147.623C146.711 77 146.027 76.79 145.571 76.37C145.115 75.95 144.887 75.26 144.887 74.3V68.486H143.609V67.136H144.887V64.652H146.525V67.136H149.099V68.486H146.525ZM151.929 65.534C151.617 65.534 151.353 65.426 151.137 65.21C150.921 64.994 150.813 64.73 150.813 64.418C150.813 64.106 150.921 63.842 151.137 63.626C151.353 63.41 151.617 63.302 151.929 63.302C152.229 63.302 152.481 63.41 152.685 63.626C152.901 63.842 153.009 64.106 153.009 64.418C153.009 64.73 152.901 64.994 152.685 65.21C152.481 65.426 152.229 65.534 151.929 65.534ZM152.721 67.136V77H151.083V67.136H152.721ZM159.815 77.162C158.891 77.162 158.051 76.952 157.295 76.532C156.551 76.112 155.963 75.518 155.531 74.75C155.111 73.97 154.901 73.07 154.901 72.05C154.901 71.042 155.117 70.154 155.549 69.386C155.993 68.606 156.593 68.012 157.349 67.604C158.105 67.184 158.951 66.974 159.887 66.974C160.823 66.974 161.669 67.184 162.425 67.604C163.181 68.012 163.775 68.6 164.207 69.368C164.651 70.136 164.873 71.03 164.873 72.05C164.873 73.07 164.645 73.97 164.189 74.75C163.745 75.518 163.139 76.112 162.371 76.532C161.603 76.952 160.751 77.162 159.815 77.162ZM159.815 75.722C160.403 75.722 160.955 75.584 161.471 75.308C161.987 75.032 162.401 74.618 162.713 74.066C163.037 73.514 163.199 72.842 163.199 72.05C163.199 71.258 163.043 70.586 162.731 70.034C162.419 69.482 162.011 69.074 161.507 68.81C161.003 68.534 160.457 68.396 159.869 68.396C159.269 68.396 158.717 68.534 158.213 68.81C157.721 69.074 157.325 69.482 157.025 70.034C156.725 70.586 156.575 71.258 156.575 72.05C156.575 72.854 156.719 73.532 157.007 74.084C157.307 74.636 157.703 75.05 158.195 75.326C158.687 75.59 159.227 75.722 159.815 75.722ZM171.833 66.956C173.033 66.956 174.005 67.322 174.749 68.054C175.493 68.774 175.865 69.818 175.865 71.186V77H174.245V71.42C174.245 70.436 173.999 69.686 173.507 69.17C173.015 68.642 172.343 68.378 171.491 68.378C170.627 68.378 169.937 68.648 169.421 69.188C168.917 69.728 168.665 70.514 168.665 71.546V77H167.027V67.136H168.665V68.54C168.989 68.036 169.427 67.646 169.979 67.37C170.543 67.094 171.161 66.956 171.833 66.956Z" fill="#909090"/>
</g>
<defs>
<filter id="filter0_d_1_1533" x="-50" y="-26" width="302" height="209" filterUnits="userSpaceOnUse" color-interpolation-filters="sRGB">
<feFlood flood-opacity="0" result="BackgroundImageFix"/>
<feColorMatrix in="SourceAlpha" type="matrix" values="0 0 0 0 0 0 0 0 0 0 0 0 0 0 0 0 0 0 127 0" result="hardAlpha"/>
<feOffset dy="24"/>
<feGaussianBlur stdDeviation="25"/>
<feComposite in2="hardAlpha" operator="out"/>
<feColorMatrix type="matrix" values="0 0 0 0 0 0 0 0 0 0 0 0 0 0 0 0 0 0 0.15 0"/>
<feBlend mode="normal" in2="BackgroundImageFix" result="effect1_dropShadow_1_1533"/>
<feBlend mode="normal" in="SourceGraphic" in2="effect1_dropShadow_1_1533" result="shape"/>
</filter>
</defs>
</svg>
